<svg width="326" height="72" viewBox="0 0 326 72" fill="none" xmlns="http://www.w3.org/2000/svg">
<path d="M3.606 25.1361H13.4405V57H3.606V25.1361ZM2.81923 15.1049C2.81923 13.5313 3.3656 12.1982 4.45832 11.1055C5.59476 9.96904 6.94974 9.40083 8.52327 9.40083C10.0968 9.40083 11.4299 9.96904 12.5226 11.1055C13.6591 12.1982 14.2273 13.5313 14.2273 15.1049C14.2273 16.6784 13.6591 18.0334 12.5226 19.1698C11.4299 20.2625 10.0968 20.8089 8.52327 20.8089C6.94974 20.8089 5.59476 20.2625 4.45832 19.1698C3.3656 18.0334 2.81923 16.6784 2.81923 15.1049ZM20.506 25.1361H29.9472V29.4633H30.0783C30.3843 28.8514 30.8214 28.2394 31.3896 27.6275C31.9578 27.0156 32.6353 26.4692 33.4221 25.9884C34.2088 25.5076 35.1049 25.1142 36.1102 24.8083C37.1155 24.5023 38.2082 24.3493 39.3884 24.3493C41.8798 24.3493 43.8904 24.7427 45.4202 25.5295C46.95 26.2725 48.1302 27.3215 48.9606 28.6765C49.8348 30.0315 50.4249 31.6269 50.7309 33.4627C51.0368 35.2984 51.1898 37.2872 51.1898 39.429V57H41.3553V41.3959C41.3553 40.478 41.3116 39.5382 41.2241 38.5766C41.1804 37.5713 40.9837 36.6534 40.6341 35.823C40.3281 34.9925 39.8254 34.315 39.1261 33.7905C38.4705 33.266 37.5089 33.0037 36.2413 33.0037C34.9737 33.0037 33.9466 33.2441 33.1598 33.7249C32.3731 34.162 31.7611 34.7739 31.324 35.5607C30.9307 36.3038 30.6684 37.1561 30.5373 38.1177C30.4061 39.0793 30.3406 40.0846 30.3406 41.1336V57H20.506V25.1361ZM79.8554 33.0037H71.201V43.625C71.201 44.4992 71.2448 45.3078 71.3322 46.0509C71.4196 46.7502 71.6163 47.3622 71.9222 47.8867C72.2282 48.4112 72.6872 48.8264 73.2991 49.1324C73.9547 49.3946 74.807 49.5257 75.8561 49.5257C76.3806 49.5257 77.0581 49.482 77.8885 49.3946C78.7627 49.2635 79.4183 49.0012 79.8554 48.6079V56.8033C78.7627 57.1967 77.6263 57.4589 76.4461 57.5901C75.266 57.7212 74.1077 57.7868 72.9713 57.7868C71.3103 57.7868 69.7805 57.6119 68.3818 57.2623C66.9831 56.9126 65.7593 56.3662 64.7102 55.6232C63.6612 54.8364 62.8308 53.8311 62.2188 52.6072C61.6506 51.3834 61.3665 49.8973 61.3665 48.1489V33.0037H55.0724V25.1361H61.3665V15.6949H71.201V25.1361H79.8554V33.0037ZM115.012 51.4927C113.439 53.5033 111.45 55.0549 109.046 56.1477C106.642 57.2404 104.151 57.7868 101.572 57.7868C99.1241 57.7868 96.8076 57.3934 94.6221 56.6066C92.4804 55.8199 90.6009 54.7053 88.9836 53.2629C87.4101 51.7768 86.1644 50.0065 85.2465 47.9522C84.3286 45.8979 83.8697 43.6032 83.8697 41.068C83.8697 38.5329 84.3286 36.2382 85.2465 34.1839C86.1644 32.1295 87.4101 30.3812 88.9836 28.9388C90.6009 27.4527 92.4804 26.3162 94.6221 25.5295C96.8076 24.7427 99.1241 24.3493 101.572 24.3493C103.845 24.3493 105.899 24.7427 107.735 25.5295C109.614 26.3162 111.188 27.4527 112.455 28.9388C113.767 30.3812 114.772 32.1295 115.471 34.1839C116.171 36.2382 116.52 38.5329 116.52 41.068V44.1495H93.7042C94.0976 46.029 94.9499 47.537 96.2612 48.6734C97.5725 49.7661 99.1897 50.3125 101.113 50.3125C102.73 50.3125 104.085 49.9628 105.178 49.2635C106.314 48.5204 107.298 47.5807 108.128 46.4443L115.012 51.4927ZM106.686 37.462C106.73 35.8011 106.183 34.3806 105.047 33.2004C103.91 32.0203 102.446 31.4302 100.654 31.4302C99.5612 31.4302 98.5996 31.605 97.7692 31.9547C96.9387 32.3044 96.2175 32.7633 95.6056 33.3315C95.0373 33.856 94.5784 34.4898 94.2287 35.2329C93.9228 35.9322 93.7479 36.6753 93.7042 37.462H106.686ZM122.501 25.1361H132.336V30.2501H132.467C133.516 28.2831 134.761 26.8189 136.204 25.8573C137.646 24.852 139.46 24.3493 141.646 24.3493C142.214 24.3493 142.782 24.3712 143.35 24.4149C143.918 24.4586 144.443 24.546 144.924 24.6771V33.6594C144.224 33.4408 143.525 33.2878 142.826 33.2004C142.17 33.0693 141.471 33.0037 140.728 33.0037C138.848 33.0037 137.362 33.266 136.269 33.7905C135.177 34.315 134.324 35.058 133.712 36.0196C133.144 36.9375 132.773 38.0521 132.598 39.3634C132.423 40.6747 132.336 42.1171 132.336 43.6906V57H122.501V25.1361ZM150.353 25.1361H159.794V29.4633H159.925C160.231 28.8514 160.668 28.2394 161.236 27.6275C161.804 27.0156 162.482 26.4692 163.269 25.9884C164.055 25.5076 164.952 25.1142 165.957 24.8083C166.962 24.5023 168.055 24.3493 169.235 24.3493C171.726 24.3493 173.737 24.7427 175.267 25.5295C176.797 26.2725 177.977 27.3215 178.807 28.6765C179.681 30.0315 180.272 31.6269 180.578 33.4627C180.883 35.2984 181.036 37.2872 181.036 39.429V57H171.202V41.3959C171.202 40.478 171.158 39.5382 171.071 38.5766C171.027 37.5713 170.83 36.6534 170.481 35.823C170.175 34.9925 169.672 34.315 168.973 33.7905C168.317 33.266 167.356 33.0037 166.088 33.0037C164.82 33.0037 163.793 33.2441 163.006 33.7249C162.22 34.162 161.608 34.7739 161.171 35.5607C160.777 36.3038 160.515 37.1561 160.384 38.1177C160.253 39.0793 160.187 40.0846 160.187 41.1336V57H150.353V25.1361Z" fill="black"/>
<path d="M222.647 35.4296C222.166 34.7302 221.488 34.162 220.614 33.7249C219.74 33.2441 218.8 33.0037 217.795 33.0037C215.304 33.0037 213.359 33.7468 211.96 35.2329C210.605 36.719 209.927 38.664 209.927 41.068C209.927 43.472 210.605 45.4171 211.96 46.9032C213.359 48.3893 215.304 49.1324 217.795 49.1324C218.888 49.1324 219.827 48.892 220.614 48.4112C221.401 47.9304 222.078 47.3622 222.647 46.7065L229.137 53.5251C227.608 55.0987 225.794 56.2132 223.696 56.8689C221.641 57.4808 219.674 57.7868 217.795 57.7868C215.347 57.7868 213.031 57.3934 210.845 56.6066C208.703 55.8199 206.824 54.7053 205.207 53.2629C203.633 51.7768 202.388 50.0065 201.47 47.9522C200.552 45.8979 200.093 43.6032 200.093 41.068C200.093 38.5329 200.552 36.2382 201.47 34.1839C202.388 32.1295 203.633 30.3812 205.207 28.9388C206.824 27.4527 208.703 26.3162 210.845 25.5295C213.031 24.7427 215.347 24.3493 217.795 24.3493C219.674 24.3493 221.641 24.6771 223.696 25.3328C225.794 25.9447 227.608 27.0374 229.137 28.611L222.647 35.4296ZM232.837 7.43392H242.671V57H232.837V7.43392ZM280.421 57H270.979V52.6728H270.848C270.499 53.2847 270.04 53.8967 269.471 54.5086C268.947 55.1205 268.291 55.6669 267.504 56.1477C266.718 56.6285 265.822 57.0219 264.816 57.3278C263.811 57.6338 262.718 57.7868 261.538 57.7868C259.047 57.7868 257.014 57.4152 255.441 56.6722C253.911 55.8854 252.709 54.8145 251.835 53.4596C251.004 52.1046 250.436 50.5092 250.13 48.6734C249.868 46.8376 249.737 44.8489 249.737 42.7071V25.1361H259.571V40.7402C259.571 41.6581 259.593 42.6197 259.637 43.625C259.724 44.5866 259.921 45.4827 260.227 46.3131C260.577 47.1436 261.079 47.8211 261.735 48.3456C262.434 48.8701 263.418 49.1324 264.685 49.1324C265.953 49.1324 266.98 48.9138 267.767 48.4767C268.554 47.9959 269.144 47.384 269.537 46.641C269.974 45.8542 270.258 44.98 270.389 44.0184C270.52 43.0568 270.586 42.0515 270.586 41.0025V25.1361H280.421V57ZM288.302 7.43392H298.137V28.5454H298.268C299.405 27.0156 300.847 25.9447 302.595 25.3328C304.387 24.6771 306.311 24.3493 308.365 24.3493C310.638 24.3493 312.67 24.8301 314.462 25.7917C316.254 26.7096 317.762 27.9553 318.986 29.5289C320.254 31.1024 321.215 32.9163 321.871 34.9706C322.57 36.9812 322.92 39.1011 322.92 41.3303C322.92 43.7343 322.549 45.9416 321.805 47.9522C321.062 49.9628 319.992 51.7112 318.593 53.1973C317.238 54.6397 315.599 55.7761 313.676 56.6066C311.752 57.3934 309.611 57.7868 307.25 57.7868C306.114 57.7868 305.043 57.6338 304.038 57.3278C303.032 57.0219 302.093 56.6285 301.219 56.1477C300.388 55.6669 299.645 55.1424 298.989 54.5741C298.377 53.9622 297.875 53.3721 297.481 52.8039H297.35V57H288.302V7.43392ZM297.35 41.068C297.35 43.472 298.028 45.4171 299.383 46.9032C300.781 48.3893 302.726 49.1324 305.218 49.1324C307.709 49.1324 309.633 48.3893 310.987 46.9032C312.386 45.4171 313.086 43.472 313.086 41.068C313.086 38.664 312.386 36.719 310.987 35.2329C309.633 33.7468 307.709 33.0037 305.218 33.0037C302.726 33.0037 300.781 33.7468 299.383 35.2329C298.028 36.719 297.35 38.664 297.35 41.068Z" fill="black"/>
<path d="M205.2 38.2487C205.193 38.3011 205.183 38.3686 205.171 38.4501C205.138 38.6659 205.086 38.9797 205.01 39.3703C204.858 40.1517 204.609 41.2402 204.22 42.4679C203.443 44.9253 202.109 47.932 199.888 50.1538C199.888 50.1538 199.888 50.1538 199.888 50.1538L205.2 38.2487ZM205.2 38.2487C205.202 38.2316 205.204 38.2161 205.206 38.2023C205.209 38.1819 205.211 38.1651 205.213 38.1519C204.87 38.2358 203.633 38.5058 202.068 38.4603L202.065 38.5514C202.065 38.5514 202.065 38.5514 202.065 38.5514C200.95 38.5199 199.662 38.2519 198.451 37.9997C198.12 37.9308 197.795 37.8631 197.481 37.8017C194.438 37.2078 190.814 38.2943 188.84 40.2691L188.84 40.2691C186.63 42.4785 186.168 45.7435 186.265 48.474C186.313 49.837 186.501 51.0613 186.677 51.9451C186.764 52.3868 186.849 52.7432 186.912 52.9889C186.943 53.1117 186.969 53.2069 186.987 53.2712C186.992 53.2869 186.995 53.3008 186.999 53.3128L205.2 38.2487Z" fill="black" stroke="white" stroke-width="0.182121"/>
<path d="M189.771 53.783C188.085 53.783 186.912 53.6091 186.896 53.607L186.761 53.5866L186.722 53.4568C186.279 51.834 186.023 50.1659 185.959 48.4849C185.902 46.8752 186.047 45.398 186.392 44.0979C186.825 42.4614 187.575 41.1001 188.623 40.0527C190.702 37.9724 194.454 36.8993 197.54 37.5013C197.858 37.5636 198.179 37.6306 198.519 37.7015C199.732 37.9537 200.987 38.215 202.074 38.2456C203.142 38.2792 204.211 38.171 205.251 37.9236L205.558 37.8388L205.521 38.1549C205.518 38.1742 205.289 40.108 204.512 42.5628C203.794 44.8303 202.445 48.0283 200.103 50.3726C197.747 52.7292 194.277 53.4847 191.781 53.6993C191.064 53.7605 190.384 53.783 189.771 53.783ZM187.096 53.2008C188.642 53.3802 190.203 53.4034 191.753 53.27C194.175 53.0554 197.537 52.33 199.802 50.0673C202.082 47.7868 203.4 44.6559 204.105 42.4313C204.521 41.1157 204.838 39.7704 205.052 38.4071C204.069 38.613 203.065 38.7031 202.061 38.6753C200.934 38.6437 199.663 38.3786 198.431 38.1227C198.093 38.0524 197.773 37.9859 197.457 37.9241C194.501 37.3463 190.916 38.3695 188.927 40.3564C187.934 41.3485 187.222 42.6427 186.808 44.202C186.474 45.4597 186.333 46.8918 186.388 48.4592C186.45 50.0608 186.688 51.6509 187.096 53.2008Z" fill="white"/>
<path d="M184.853 57.1798C184.894 57.0547 184.935 56.941 184.978 56.824C185.021 56.707 185.068 56.5927 185.11 56.4785C185.2 56.2488 185.293 56.0215 185.389 55.7965C185.584 55.3463 185.787 54.8999 186.005 54.4615C186.434 53.5826 186.906 52.7264 187.421 51.8929C188.442 50.2272 189.616 48.6601 190.928 47.2119C191.589 46.4929 192.281 45.807 193.005 45.1542L193.559 44.6777C193.652 44.5993 193.742 44.5167 193.837 44.4416L194.123 44.2141L194.409 43.9866C194.504 43.9109 194.598 43.8337 194.697 43.7634L195.288 43.3341L195.435 43.2268C195.484 43.1914 195.535 43.1587 195.585 43.1243L195.888 42.9204L196.191 42.7165L196.342 42.6151L196.496 42.5164L197.118 42.1349L197.273 42.0394L197.434 41.9503L197.753 41.7732C198.596 41.2903 199.48 40.8857 200.368 40.4978C199.491 40.9104 198.62 41.3381 197.793 41.843L197.481 42.0281L197.324 42.1215L197.173 42.2207L196.561 42.6173L196.409 42.7165L196.261 42.8238L195.966 43.0347L195.671 43.2456C195.622 43.2805 195.573 43.3148 195.524 43.3529L195.381 43.4645L194.808 43.9093C194.712 43.9817 194.621 44.0612 194.528 44.139L194.251 44.3724L193.975 44.6031C193.882 44.6798 193.795 44.7641 193.706 44.8446L193.17 45.3323C192.472 45.9998 191.806 46.6973 191.171 47.4249C189.916 48.8895 188.801 50.4677 187.838 52.1392C187.357 52.9734 186.916 53.8282 186.516 54.7035C186.314 55.1392 186.128 55.5818 185.95 56.0267C185.861 56.2492 185.777 56.4727 185.695 56.6974C185.655 56.8101 185.615 56.9222 185.577 57.0349C185.539 57.1476 185.502 57.2624 185.47 57.3681L184.853 57.1798Z" fill="black"/>
<path d="M187.421 51.8929C188.442 50.2272 189.616 48.6601 190.928 47.2119C191.589 46.4929 192.281 45.807 193.005 45.1542L193.559 44.6777C193.652 44.5993 193.742 44.5167 193.837 44.4416L194.123 44.2141L194.409 43.9866C194.504 43.9109 194.598 43.8337 194.697 43.7634L195.288 43.3341L195.435 43.2268C195.484 43.1914 195.535 43.1587 195.585 43.1243L195.888 42.9204L196.191 42.7165L196.342 42.6151L196.496 42.5164L197.118 42.1349L197.273 42.0394L197.434 41.9503L197.753 41.7732C198.596 41.2903 199.48 40.8857 200.368 40.4978C199.491 40.9104 198.62 41.3381 197.793 41.843L197.481 42.0281L197.324 42.1215L197.173 42.2207L196.561 42.6173L196.409 42.7165L196.261 42.8238L195.966 43.0347L195.671 43.2456C195.622 43.2805 195.572 43.3148 195.524 43.3529L195.381 43.4645L194.808 43.9093C194.712 43.9817 194.621 44.0612 194.528 44.139L194.251 44.3724L193.975 44.6031C193.882 44.6798 193.795 44.7641 193.706 44.8446L193.17 45.3323C192.472 45.9998 191.806 46.6973 191.171 47.4249C189.916 48.8895 188.801 50.4677 187.838 52.1392L187.245 53.2161L186.967 52.6527C187.115 52.3974 187.266 52.1441 187.421 51.8929Z" fill="white"/>
</svg>
