<svg width="326" height="72" viewBox="0 0 326 72" fill="none" xmlns="http://www.w3.org/2000/svg">
<path d="M239.095 21.2455V22.0219C239.095 30.6502 239.095 39.2784 239.095 47.9065C239.095 48.5375 238.961 48.7694 238.287 48.7505C236.632 48.7021 234.973 48.7344 233.262 48.7344V12.6038C233.472 12.5877 233.663 12.558 233.857 12.558C236.509 12.558 239.158 12.558 241.805 12.5445C242.302 12.5445 242.501 12.7144 242.653 13.1754C245.419 21.6418 248.196 30.1055 250.983 38.5665C251.06 38.7984 251.151 39.0223 251.299 39.4213C251.444 39.0951 251.537 38.9306 251.596 38.7527C254.37 30.3131 257.136 21.8702 259.895 13.4235C260.11 12.7575 260.387 12.5202 261.107 12.5364C263.6 12.5903 266.092 12.5553 268.586 12.5553H269.393V13.3642C269.393 24.8864 269.393 36.4068 269.393 47.9255C269.393 48.5187 269.275 48.7505 268.625 48.7344C266.901 48.6859 265.176 48.7182 263.358 48.7182V21.2158L263.204 21.1835C263.12 21.3213 263.047 21.4656 262.985 21.6149C260 30.2952 257.016 38.9746 254.035 47.6532C253.594 48.9285 253.922 48.6993 252.568 48.7317C251.49 48.7317 250.412 48.7154 249.334 48.7317C249.161 48.7602 248.982 48.7198 248.838 48.6192C248.692 48.5185 248.593 48.3656 248.559 48.1925C246.212 41.3204 243.857 34.4511 241.494 27.5845L239.537 21.8898C239.456 21.6608 239.359 21.437 239.268 21.2104L239.095 21.2455Z" fill="black"/>
<path d="M116.977 22.6334C115.01 22.7925 113.111 22.957 111.211 23.0783C111.055 23.0783 110.78 22.8087 110.726 22.6362C110.257 21.0022 109.486 19.5678 108.12 18.5C106.976 17.6173 105.609 17.0696 104.173 16.9173C102.114 16.6691 100.082 16.7582 98.212 17.7828C96.3419 18.8074 95.4258 20.3226 95.6145 22.469C95.6457 23.0075 95.8098 23.5299 96.0919 23.9895C96.374 24.4491 96.7653 24.8317 97.2313 25.1033C98.6135 25.9499 100.166 26.3058 101.718 26.6698C105.188 27.4787 108.689 28.1771 112.033 29.4633C115.708 30.8787 117.662 33.5562 117.875 37.4604C118.185 43.0714 115.754 46.6737 110.314 48.3562C105.315 49.9039 100.287 49.8419 95.4419 47.7145C91.3138 45.9026 88.9614 42.6131 88.1099 38.2262C88.0695 38.0132 88.0588 37.792 88.0263 37.4955L94.2052 36.8484C94.3479 37.4955 94.4504 38.0645 94.6012 38.6225C95.2291 40.9117 96.6384 42.5565 98.848 43.422C102.114 44.6973 105.42 44.8645 108.646 43.3141C110.941 42.2114 111.866 40.2215 111.391 37.7624C111.092 36.2013 110.063 35.1956 108.635 34.721C106.509 34.0173 104.324 33.4834 102.168 32.8606C99.694 32.1461 97.1665 31.5662 94.7655 30.6523C90.7883 29.1397 88.8536 25.7288 89.2039 21.5037C89.5004 17.9365 91.3327 15.3642 94.426 13.803C99.5 11.2469 104.771 11.1067 109.969 13.3905C113.79 15.0649 115.856 18.2897 116.918 22.2181C116.948 22.3551 116.967 22.4938 116.977 22.6334Z" fill="black"/>
<path d="M222.507 25.4897V12.5475H225.104C225.981 12.5475 226.856 12.5798 227.73 12.5475C228.288 12.5205 228.411 12.7308 228.403 13.2431C228.376 14.8771 228.403 16.5137 228.403 18.1477V48.7913H222.787V45.3697C222.652 45.4656 222.526 45.5739 222.41 45.6932C220.793 48.0741 218.423 49.0906 215.674 49.3467C208.323 50.0288 203.972 44.976 202.891 39.3245C202.082 35.0239 202.403 30.8258 204.776 27.0023C208.426 21.1029 215.418 20.7335 219.538 22.9255C220.463 23.4189 221.203 24.2522 222.022 24.937C222.194 25.1118 222.357 25.2964 222.507 25.4897ZM208.439 35.5767C208.517 36.4449 208.552 37.3211 208.687 38.1813C208.797 38.8437 208.969 39.4945 209.198 40.1253C210.195 42.9565 212.382 44.639 215.175 44.7711C218.333 44.9193 220.659 43.6412 221.858 40.794C223.342 37.2726 223.342 33.6623 221.753 30.1678C220.57 27.5741 218.407 26.3257 215.555 26.3768C212.705 26.4281 210.705 27.8031 209.503 30.3405C208.706 31.9906 208.471 33.762 208.439 35.5767Z" fill="black"/>
<path d="M146.626 35.6002C146.577 38.3343 146.087 40.9498 144.716 43.3468C142.829 46.6579 139.924 48.5613 136.198 49.1816C133.552 49.6237 130.911 49.5025 128.367 48.548C124.67 47.1647 122.267 44.5035 121.111 40.788C119.979 37.2812 120.025 33.5003 121.24 30.0216C123.002 24.9661 126.713 22.3101 131.981 21.7897C134.894 21.5013 137.726 21.8923 140.312 23.3697C143.915 25.4298 145.702 28.6896 146.359 32.6613C146.518 33.6293 146.54 34.6188 146.626 35.6002ZM140.652 35.584C140.585 34.7753 140.552 33.9662 140.436 33.1817C140.338 32.518 140.187 31.8634 139.984 31.2242C139.076 28.3633 136.853 26.511 134.185 26.3708C130.924 26.1793 128.526 27.4871 127.322 30.3747C125.856 33.9232 125.85 37.5578 127.438 41.0764C128.55 43.5409 130.598 44.7542 133.336 44.8C136.074 44.8459 138.133 43.6865 139.426 41.2598C140.369 39.4911 140.614 37.5578 140.652 35.584Z" fill="black"/>
<path d="M290.42 48.7797H284.551V22.356H290.108V25.7399L290.279 25.8045C290.412 25.6509 290.55 25.5026 290.676 25.3408C294.12 20.7382 301.314 20.8676 304.795 23.7069C306.712 25.2679 307.632 27.2929 307.886 29.6818C307.954 30.3502 307.986 31.0216 307.983 31.6933C307.983 37.1381 307.983 42.581 307.983 48.0221V48.7664H302.101V47.9575C302.101 42.9388 302.101 37.9217 302.101 32.9067C302.101 31.6448 301.991 30.4018 301.475 29.2235C301.287 28.7536 301.005 28.326 300.65 27.9659C300.293 27.6057 299.869 27.3202 299.402 27.1258C296.114 25.7615 292.161 26.7887 290.827 31.3644C290.56 32.3586 290.426 33.3844 290.434 34.4138C290.393 38.914 290.418 43.4169 290.415 47.9197L290.42 48.7797Z" fill="black"/>
<path d="M176.128 22.3591H181.682V25.7403L181.83 25.8131C181.978 25.646 182.14 25.4895 182.272 25.3116C185.67 20.7656 193.071 20.7764 196.656 23.9634C197.541 24.7304 198.252 25.6789 198.738 26.7448C199.226 27.8107 199.477 28.9687 199.477 30.1407C199.574 36.2774 199.522 42.4142 199.528 48.5483C199.516 48.6244 199.496 48.6988 199.466 48.7694H193.69V47.9606C193.69 43.0128 193.719 38.0625 193.667 33.1147C193.641 31.9306 193.474 30.7537 193.168 29.6095C192.81 28.2129 191.795 27.3337 190.418 26.9132C186.39 25.6378 182.699 28.1077 182.137 32.4676C182.042 33.2224 181.995 33.9824 181.995 34.7433C181.995 39.1301 181.995 43.5198 181.995 47.9093V48.7587H176.128V22.3591Z" fill="black"/>
<path d="M172.436 48.7832H166.9V45.4236L166.726 45.3644C166.605 45.4991 166.473 45.634 166.361 45.7661C164.586 48.0552 162.226 49.1984 159.355 49.3764C157.537 49.487 155.766 49.3172 154.091 48.5513C150.55 46.9335 149.07 44.0162 149.038 40.2925C148.989 34.5144 149.022 28.7335 149.022 22.9553C149.022 22.78 149.047 22.6047 149.063 22.3809H154.953V23.1575C154.953 28.1115 154.953 33.0628 154.953 38.0115C154.956 38.7273 155.001 39.4421 155.091 40.1523C155.518 43.5497 157.854 44.8493 160.938 44.5662C163.786 44.2965 165.869 42.1746 166.392 39.1735C166.546 38.2469 166.624 37.309 166.623 36.3695C166.646 31.9565 166.646 27.5435 166.623 23.1305C166.623 22.5455 166.739 22.3054 167.394 22.3216C169.052 22.3728 170.711 22.3379 172.436 22.3379V48.7832Z" fill="black"/>
<path d="M313.796 26.5274C312.524 26.5274 311.524 26.5274 310.198 26.5274C309.659 26.5436 309.449 26.3927 309.471 25.8183C309.511 24.6832 309.471 23.5453 309.471 22.3131H313.782V14.9548H319.653V22.3078H321.461C322.561 22.3078 323.661 22.3266 324.759 22.3078C325.216 22.3078 325.401 22.4236 325.388 22.9063C325.357 23.9147 325.357 24.9223 325.388 25.9288C325.388 26.4061 325.229 26.5462 324.768 26.5382C323.332 26.5139 321.896 26.5382 320.457 26.5382H319.647V27.2798C319.647 31.9138 319.647 36.5487 319.647 41.1846C319.647 43.4388 320.163 43.9564 322.41 43.9968C323.261 43.9968 324.11 43.9968 325.013 43.9968V48.8826C323.235 48.8826 321.47 48.9014 319.708 48.8826C319.103 48.8557 318.5 48.7872 317.904 48.6776C315.45 48.2866 314.132 46.9277 313.863 44.4444C313.797 43.776 313.768 43.1046 313.773 42.433C313.773 37.4394 313.773 32.4458 313.773 27.4523L313.796 26.5274Z" fill="black"/>
<path d="M274.562 22.3157C276.432 22.3157 278.223 22.3157 280.019 22.3345C280.153 22.3345 280.288 22.5043 280.382 22.658C280.419 22.7869 280.432 22.9212 280.42 23.0545V48.753H274.562V22.3157Z" fill="black"/>
<path d="M274.545 18.3081V12.5435H275.952C277.251 12.5435 278.552 12.5435 279.852 12.5435C280.295 12.5435 280.433 12.689 280.428 13.1231C280.407 14.6654 280.428 16.2078 280.404 17.7501C280.404 17.9415 280.178 18.2893 280.05 18.2893C278.24 18.319 276.426 18.3081 274.545 18.3081Z" fill="black"/>
<path d="M0.736163 69.823H1.01516C1.14549 69.823 1.25085 69.731 1.25085 69.617V22.4799C1.25085 22.3661 1.14549 22.2739 1.01516 22.2739H0.736163C0.60584 22.2739 0.500481 22.3661 0.500481 22.4799V69.617C0.500481 69.731 0.60584 69.823 0.736163 69.823Z" fill="black"/>
<path d="M1.15809 66.5697H1.34409C1.43097 66.5697 1.50121 66.4766 1.50121 66.3615V18.7282C1.50121 18.6132 1.43097 18.52 1.34409 18.52H1.15809C1.07121 18.52 1.00097 18.6132 1.00097 18.7282V66.3615C1.00097 66.4766 1.07121 66.5697 1.15809 66.5697Z" fill="black"/>
<path d="M5.00441 18.4249H4.77904C4.65114 18.4249 4.54737 18.5261 4.54737 18.6509V69.5975C4.54737 69.7223 4.65114 69.8235 4.77904 69.8235H5.02992C5.1578 69.8235 5.26157 69.7223 5.26157 69.5975V66.518C5.26157 66.3932 5.36535 66.292 5.49323 66.292H5.71861C5.84649 66.292 5.95027 66.1907 5.95027 66.066V15.3505C5.95027 15.2258 5.84649 15.1245 5.71861 15.1245H5.46773C5.33985 15.1245 5.23608 15.2258 5.23608 15.3505V18.1989C5.23608 18.3237 5.13229 18.4249 5.00441 18.4249Z" fill="black"/>
<path d="M63.6848 4.09935H63.9117C64.0391 4.09935 64.143 3.99843 64.1425 3.87365V1.02427C64.1425 0.899496 64.246 0.798584 64.3735 0.798584H64.6255C64.7531 0.798584 64.8565 0.899837 64.8565 1.02427V51.7411C64.8565 51.8656 64.7531 51.9664 64.6255 51.9664H64.3987H63.9368H63.6848C63.5573 51.9664 63.4538 51.8656 63.4538 51.7411V4.32469C63.4538 4.20025 63.5573 4.09935 63.6848 4.09935Z" fill="black"/>
<path d="M63.9117 4.09933H63.6848C63.5573 4.09933 63.4538 4.20025 63.4538 4.32469V55.2722C63.4538 55.3967 63.5573 55.4976 63.6848 55.4976H63.9368C64.0644 55.4976 64.1678 55.3967 64.1678 55.2722V52.1918C64.1678 52.0674 64.2711 51.9664 64.3987 51.9664H64.6255C64.7531 51.9664 64.8565 51.8655 64.8565 51.7411V1.02427C64.8565 0.899837 64.7531 0.798584 64.6255 0.798584H64.3735C64.246 0.798584 64.1425 0.899496 64.1425 1.02427V3.87365C64.143 3.99843 64.0391 4.09933 63.9117 4.09933Z" fill="black"/>
<path d="M67.9469 4.06118H68.1491C68.2628 4.06118 68.3554 3.96 68.3551 3.8349V0.977992C68.3551 0.852887 68.4474 0.751709 68.5609 0.751709H68.7856C68.8993 0.751709 68.9916 0.853229 68.9916 0.977992V51.8288C68.9916 51.9535 68.8993 52.0548 68.7856 52.0548H68.5834H68.1716H67.9469C67.8332 52.0548 67.741 51.9535 67.741 51.8288V4.28713C67.741 4.16236 67.8332 4.06118 67.9469 4.06118Z" fill="black"/>
<path d="M9.87735 15.1246H9.62662C9.49882 15.1246 9.39512 15.2258 9.39512 15.3506V18.199C9.39512 18.3237 9.2914 18.425 9.1636 18.425H8.93836C8.81055 18.425 8.70684 18.5262 8.70684 18.651V69.5976C8.70684 69.7223 8.81055 69.8237 8.93836 69.8237H9.18909C9.31689 69.8237 9.42059 69.7223 9.42059 69.5976V66.5182C9.42059 66.3933 9.52431 66.292 9.65211 66.292H9.87735C10.0051 66.292 10.1089 66.1908 10.1089 66.066V62.8396C10.1089 62.7148 10.2126 62.6136 10.3404 62.6136H10.5911C10.7189 62.6136 10.8226 62.5123 10.8226 62.3876V11.8405C10.8226 11.7157 10.7189 11.6145 10.5911 11.6145H10.3404C10.2126 11.6145 10.1089 11.7157 10.1089 11.8405V14.8981C10.1092 15.0233 10.0055 15.1246 9.87735 15.1246Z" fill="black"/>
<path d="M59.7884 4.301H59.5398C59.4113 4.301 59.3073 4.4026 59.3073 4.52805V7.37436C59.3073 7.49982 59.2032 7.60141 59.0747 7.60141H58.8515C58.723 7.60141 58.6191 7.703 58.6191 7.82846V58.773C58.6191 58.8985 58.723 59.0001 58.8515 59.0001H59.1001C59.2286 59.0001 59.3327 58.8985 59.3327 58.773V55.6956C59.3327 55.5701 59.4368 55.4685 59.5653 55.4685H59.7884C59.9169 55.4685 60.021 55.3669 60.021 55.2415V52.0167C60.021 51.8913 60.1251 51.7896 60.2536 51.7896H60.5022C60.6307 51.7896 60.7348 51.6881 60.7348 51.5626V1.01831C60.7348 0.892853 60.6307 0.79126 60.5022 0.79126H60.2536C60.1251 0.79126 60.021 0.892853 60.021 1.01831V4.07394C60.021 4.19941 59.9169 4.301 59.7884 4.301Z" fill="black"/>
<path d="M14.8961 11.6682H14.6454C14.5176 11.6682 14.4139 11.7694 14.4139 11.8942V14.9519C14.4139 15.0767 14.3102 15.1779 14.1824 15.1779H13.9316C13.8038 15.1779 13.7001 15.2792 13.7001 15.4039V18.2523C13.7001 18.3771 13.5964 18.4783 13.4686 18.4783H13.2434C13.1156 18.4783 13.0119 18.5796 13.0119 18.7043V69.6509C13.0119 69.7757 13.1156 69.8771 13.2434 69.8771H13.4941C13.6219 69.8771 13.7256 69.7757 13.7256 69.6509V66.5715C13.7256 66.4466 13.8293 66.3454 13.9571 66.3454H14.1824C14.3102 66.3454 14.4139 66.2442 14.4139 66.1194V62.8929C14.4139 62.7682 14.5176 62.6669 14.6454 62.6669H14.8961C15.0239 62.6669 15.1276 62.5657 15.1276 62.4409V59.5693C15.1276 59.4446 15.2314 59.3433 15.3591 59.3433H15.6098C15.7377 59.3433 15.8414 59.2421 15.8414 59.1173V8.23652C15.8414 8.11175 15.7377 8.0105 15.6098 8.0105H15.3591C15.2314 8.0105 15.1276 8.11175 15.1276 8.23652V11.4422C15.1276 11.5669 15.0239 11.6682 14.8961 11.6682Z" fill="black"/>
<path d="M55.3762 4.4094H55.1276C54.999 4.4094 54.895 4.51099 54.895 4.63645V7.6921C54.895 7.81756 54.7909 7.91915 54.6624 7.91915H54.4138C54.2853 7.91915 54.1812 8.02074 54.1812 8.1462V10.9925C54.1812 11.118 54.0772 11.2196 53.9487 11.2196H53.7255C53.597 11.2196 53.4929 11.3211 53.4929 11.4466V62.3912C53.4929 62.5167 53.597 62.6182 53.7255 62.6182H53.9741C54.1026 62.6182 54.2067 62.5167 54.2067 62.3912V59.3137C54.2067 59.1882 54.3109 59.0867 54.4394 59.0867H54.6624C54.7909 59.0867 54.895 58.985 54.895 58.8596V55.6349C54.895 55.5094 54.999 55.4078 55.1276 55.4078H55.3762C55.5047 55.4078 55.6087 55.3062 55.6087 55.1807V52.3113C55.6087 52.1858 55.7128 52.0843 55.8413 52.0843H56.0899C56.2184 52.0843 56.3225 51.9826 56.3225 51.8571V0.978759C56.3225 0.853303 56.2184 0.751709 56.0899 0.751709H55.8413C55.7128 0.751709 55.6087 0.853303 55.6087 0.978759V4.18235C55.6091 4.30781 55.5047 4.4094 55.3762 4.4094Z" fill="black"/>
<path d="M20.0963 8.01057H19.8456C19.7177 8.01057 19.614 8.11183 19.614 8.2366V11.4422C19.614 11.567 19.5104 11.6683 19.3826 11.6683H19.1318C19.004 11.6683 18.9004 11.7695 18.9004 11.8943V14.9519C18.9004 15.0768 18.7965 15.1781 18.6688 15.1781H18.4181C18.2902 15.1781 18.1865 15.2793 18.1865 15.404V18.2525C18.1865 18.3772 18.0829 18.4784 17.9551 18.4784H17.7298C17.6019 18.4784 17.4983 18.5797 17.4983 18.7044V69.651C17.4983 69.7758 17.6019 69.877 17.7298 69.877H17.9805C18.1083 69.877 18.2121 69.7758 18.2121 69.651V66.5715C18.2121 66.4468 18.3158 66.3455 18.4435 66.3455H18.6688C18.7965 66.3455 18.9004 66.2443 18.9004 66.1195V62.893C18.9004 62.7683 19.004 62.667 19.1318 62.667H19.3826C19.5104 62.667 19.614 62.5658 19.614 62.4411V59.5694C19.614 59.4447 19.7177 59.3434 19.8456 59.3434H20.0963C20.2242 59.3434 20.3279 59.2422 20.3279 59.1175V55.8626C20.3279 55.7379 20.4315 55.6366 20.5593 55.6366H20.8101C20.9379 55.6366 21.0415 55.5354 21.0415 55.4106V4.73164C21.0415 4.60686 20.9379 4.50562 20.8101 4.50562H20.5593C20.4315 4.50562 20.3279 4.60686 20.3279 4.73164V7.78455C20.3279 7.90932 20.2242 8.01057 20.0963 8.01057Z" fill="black"/>
<path d="M50.8413 4.25549H50.6165C50.5003 4.25549 50.4064 4.35706 50.4064 4.48247V7.685C50.4064 7.81041 50.3122 7.91198 50.1961 7.91198H49.9714C49.8552 7.91198 49.7611 8.01353 49.7611 8.13894V11.1936C49.7611 11.319 49.6671 11.4205 49.551 11.4205H49.3261C49.21 11.4205 49.116 11.5221 49.116 11.6475V14.4929C49.116 14.6183 49.0219 14.7198 48.9057 14.7198H48.7041C48.5879 14.7198 48.4938 14.8214 48.4938 14.9468V65.8746C48.4938 66.0001 48.5879 66.1017 48.7041 66.1017H48.9288C49.0449 66.1017 49.1391 66.0001 49.1391 65.8746V62.7982C49.1391 62.6729 49.233 62.5713 49.3492 62.5713H49.551C49.6671 62.5713 49.7611 62.4696 49.7611 62.3443V59.1206C49.7611 58.9953 49.8552 58.8936 49.9714 58.8936H50.1961C50.3122 58.8936 50.4064 58.7921 50.4064 58.6667V55.7982C50.4064 55.6727 50.5003 55.5712 50.6165 55.5712H50.8413C50.9575 55.5712 51.0514 55.4696 51.0514 55.3441V52.0925C51.0514 51.9672 51.1456 51.8657 51.2617 51.8657H51.4864C51.6026 51.8657 51.6965 51.7641 51.6965 51.6386V0.978684C51.6965 0.853267 51.6026 0.751709 51.4864 0.751709H51.2617C51.1456 0.751709 51.0514 0.853267 51.0514 0.978684V4.02853C51.0514 4.15395 50.9575 4.25549 50.8413 4.25549Z" fill="black"/>
<path d="M25.4801 4.40642H25.3268C25.2118 4.40642 25.1186 4.50604 25.1186 4.62885V7.69167C25.1186 7.81448 25.0253 7.91409 24.9104 7.91409H24.7287C24.6137 7.91409 24.5205 8.01372 24.5205 8.13653V11.3518C24.5205 11.4747 24.4272 11.5743 24.3123 11.5743H24.1305C24.0155 11.5743 23.9222 11.6739 23.9222 11.7967V14.8643C23.9222 14.9871 23.829 15.0867 23.714 15.0867H23.5322C23.4174 15.0867 23.324 15.1864 23.324 15.3092V18.1673C23.324 18.2901 23.2307 18.3898 23.1158 18.3898H22.9551C22.8401 18.3898 22.7469 18.4894 22.7469 18.6121V69.6007C22.7469 69.7236 22.8401 69.8232 22.9551 69.8232H23.1369C23.2519 69.8232 23.3451 69.7236 23.3451 69.6007V66.5113C23.3451 66.3885 23.4384 66.2889 23.5534 66.2889H23.714C23.829 66.2889 23.9222 66.1892 23.9222 66.0664V62.8299C23.9222 62.7071 24.0155 62.6075 24.1305 62.6075H24.3123C24.4272 62.6075 24.5205 62.508 24.5205 62.3851V59.5038C24.5205 59.381 24.6137 59.2814 24.7287 59.2814H24.9104C25.0253 59.2814 25.1186 59.1817 25.1186 59.0589V55.7941C25.1186 55.6714 25.2118 55.5717 25.3268 55.5717H25.5086C25.6236 55.5717 25.7168 55.4721 25.7168 55.3493V51.9889C25.7168 51.8662 25.8101 51.7666 25.9251 51.7666H26.0465C26.1614 51.7666 26.2547 51.667 26.2547 51.5442V0.974136C26.2547 0.851323 26.1614 0.751709 26.0465 0.751709H25.8966C25.7816 0.751709 25.6884 0.851323 25.6884 0.974136V4.18399C25.6884 4.30681 25.5951 4.40642 25.4801 4.40642Z" fill="black"/>
<path d="M30.7055 4.40642H30.5537C30.4397 4.40642 30.3474 4.50604 30.3474 4.62885V7.69167C30.3474 7.81448 30.2549 7.91409 30.1409 7.91409H29.9609C29.8469 7.91409 29.7545 8.01372 29.7545 8.13653V11.3518C29.7545 11.4747 29.662 11.5743 29.5481 11.5743H29.368C29.2541 11.5743 29.1617 11.6739 29.1617 11.7967V14.8643C29.1617 14.9871 29.0692 15.0867 28.9554 15.0867H28.7752C28.6613 15.0867 28.5689 15.1864 28.5689 15.3092V18.1673C28.5689 18.2901 28.4765 18.3898 28.3626 18.3898H28.2034C28.0894 18.3898 27.9969 18.4894 27.9969 18.6121V69.6007C27.9969 69.7236 28.0894 69.8232 28.2034 69.8232H28.3834C28.4974 69.8232 28.5898 69.7236 28.5898 69.6007V66.5113C28.5898 66.3885 28.6823 66.2889 28.7961 66.2889H28.9554C29.0692 66.2889 29.1617 66.1892 29.1617 66.0664V62.8299C29.1617 62.7071 29.2541 62.6075 29.368 62.6075H29.5481C29.662 62.6075 29.7545 62.508 29.7545 62.3851V59.5038C29.7545 59.381 29.8469 59.2814 29.9609 59.2814H30.1409C30.2549 59.2814 30.3474 59.1817 30.3474 59.0589V55.7941C30.3474 55.6714 30.4397 55.5717 30.5537 55.5717H30.7337C30.8477 55.5717 30.94 55.4721 30.94 55.3493V51.9889C30.94 51.8662 31.0326 51.7666 31.1465 51.7666H31.2983C31.4123 51.7666 31.5048 51.667 31.5048 51.5442V0.974136C31.5048 0.851323 31.4123 0.751709 31.2983 0.751709H31.1183C31.0044 0.751709 30.912 0.851323 30.912 0.974136V4.18399C30.912 4.30681 30.8195 4.40642 30.7055 4.40642Z" fill="black"/>
<path d="M35.7064 4.40642H35.5941C35.4832 4.40642 35.3932 4.50604 35.3932 4.62885V7.69167C35.3932 7.81448 35.3033 7.91409 35.1924 7.91409H35.0525C34.9416 7.91409 34.8517 8.01372 34.8517 8.13653V11.3518C34.8517 11.4747 34.7617 11.5743 34.6509 11.5743H34.5111C34.4002 11.5743 34.3102 11.6739 34.3102 11.7967V14.8643C34.3102 14.9871 34.2203 15.0867 34.1094 15.0867H33.9695C33.8586 15.0867 33.7687 15.1864 33.7687 15.3092V18.1673C33.7687 18.2901 33.6787 18.3898 33.5679 18.3898H33.4472C33.3363 18.3898 33.2463 18.4894 33.2463 18.6121V69.6007C33.2463 69.7236 33.3363 69.8232 33.4472 69.8232H33.587C33.6978 69.8232 33.7878 69.7236 33.7878 69.6007V66.5113C33.7878 66.3885 33.8777 66.2889 33.9886 66.2889H34.1094C34.2203 66.2889 34.3102 66.1892 34.3102 66.0664V62.8299C34.3102 62.7071 34.4002 62.6075 34.5111 62.6075H34.6509C34.7617 62.6075 34.8517 62.508 34.8517 62.3851V59.5038C34.8517 59.381 34.9416 59.2814 35.0525 59.2814H35.1927C35.3036 59.2814 35.3935 59.1817 35.3935 59.0589V55.7941C35.3935 55.6714 35.4835 55.5717 35.5943 55.5717H35.7341C35.845 55.5717 35.935 55.4721 35.935 55.3493V51.9889C35.935 51.8662 36.0249 51.7666 36.1358 51.7666H36.2483C36.3591 51.7666 36.449 51.667 36.449 51.5442V0.974136C36.449 0.851323 36.3591 0.751709 36.2483 0.751709H36.1085C35.9976 0.751709 35.9076 0.851323 35.9076 0.974136V4.18399C35.9073 4.30681 35.8173 4.40642 35.7064 4.40642Z" fill="black"/>
<path d="M40.8183 4.40647H40.7098C40.5911 4.40647 40.4949 4.50814 40.4949 4.63369V7.68666C40.4949 7.81221 40.3987 7.91386 40.2799 7.91386H40.1423C40.0235 7.91386 39.9274 8.01552 39.9274 8.14107V11.3469C39.9274 11.4724 39.8312 11.5741 39.7124 11.5741H39.5749C39.4561 11.5741 39.3599 11.6758 39.3599 11.8013V14.859C39.3599 14.9846 39.2638 15.0863 39.145 15.0863H39.0075C38.8887 15.0863 38.7925 15.188 38.7925 15.3135V18.1617C38.7925 18.2874 38.6963 18.3889 38.5775 18.3889H38.4604C38.3416 18.3889 38.2454 18.4906 38.2454 18.6162V69.5959C38.2454 69.7215 38.3416 69.8232 38.4604 69.8232H38.598C38.7166 69.8232 38.8128 69.7215 38.8128 69.5959V66.5163C38.8128 66.3908 38.9091 66.2892 39.0278 66.2892H39.145C39.2638 66.2892 39.3599 66.1875 39.3599 66.062V62.8349C39.3599 62.7094 39.4561 62.6078 39.5749 62.6078H39.7124C39.8312 62.6078 39.9274 62.5061 39.9274 62.3806V59.5091C39.9274 59.3835 40.0235 59.2818 40.1423 59.2818H40.2799C40.3987 59.2818 40.4949 59.1803 40.4949 59.0546V55.7998C40.4949 55.6742 40.5911 55.5725 40.7098 55.5725H40.8474C40.9662 55.5725 41.0623 55.4708 41.0623 55.3453V51.9945C41.0623 51.869 41.1585 51.7674 41.2773 51.7674H41.3857C41.5045 51.7674 41.6007 51.6657 41.6007 51.54V0.978916C41.6007 0.853372 41.5045 0.751709 41.3857 0.751709H41.2482C41.1294 0.751709 41.0333 0.853372 41.0333 0.978916V4.17893C41.0333 4.30447 40.9371 4.40647 40.8183 4.40647Z" fill="black"/>
<path d="M45.95 4.40647H45.8465C45.7331 4.40647 45.6412 4.50814 45.6412 4.63369V7.68666C45.6412 7.81221 45.5494 7.91386 45.436 7.91386H45.3047C45.1914 7.91386 45.0996 8.01552 45.0996 8.14107V11.3469C45.0996 11.4724 45.0078 11.5741 44.8945 11.5741H44.7632C44.6498 11.5741 44.5579 11.6758 44.5579 11.8013V14.859C44.5579 14.9846 44.4661 15.0863 44.3527 15.0863H44.2215C44.1081 15.0863 44.0163 15.188 44.0163 15.3135V18.1617C44.0163 18.2874 43.9245 18.3889 43.8112 18.3889H43.6993C43.5859 18.3889 43.4941 18.4906 43.4941 18.6162V69.5959C43.4941 69.7215 43.5859 69.8232 43.6993 69.8232H43.8306C43.9439 69.8232 44.0357 69.7215 44.0357 69.5959V66.5163C44.0357 66.3908 44.1275 66.2892 44.2408 66.2892H44.3527C44.4661 66.2892 44.5579 66.1875 44.5579 66.062V62.8349C44.5579 62.7094 44.6498 62.6078 44.7632 62.6078H44.8945C45.0078 62.6078 45.0996 62.5061 45.0996 62.3806V59.5091C45.0996 59.3835 45.1914 59.2818 45.3047 59.2818H45.436C45.5494 59.2818 45.6412 59.1803 45.6412 59.0546V55.7998C45.6412 55.6742 45.7331 55.5725 45.8465 55.5725H45.9777C46.0911 55.5725 46.1829 55.4708 46.1829 55.3453V51.9945C46.1829 51.869 46.2747 51.7674 46.388 51.7674H46.4916C46.6049 51.7674 46.6969 51.6657 46.6969 51.54V0.978916C46.6969 0.853372 46.6049 0.751709 46.4916 0.751709H46.3603C46.2469 0.751709 46.1551 0.853372 46.1551 0.978916V4.17893C46.1551 4.30447 46.0634 4.40647 45.95 4.40647Z" fill="black"/>
</svg>
